<?xml version="1.0" encoding="UTF-8" standalone="no"?>
<!-- Uploaded to: SVG Repo, www.svgrepo.com, Transformed by: SVG Repo Mixer Tools -->

<svg
   fill="#f7b32b"
   height="800px"
   width="800px"
   version="1.1"
   id="Layer_1"
   viewBox="0 0 512 512"
   xml:space="preserve"
   sodipodi:docname="background2.svg"
   inkscape:version="1.2.2 (b0a84865, 2022-12-01)"
   xmlns:inkscape="http://www.inkscape.org/namespaces/inkscape"
   xmlns:sodipodi="http://sodipodi.sourceforge.net/DTD/sodipodi-0.dtd"
   xmlns="http://www.w3.org/2000/svg"
   xmlns:svg="http://www.w3.org/2000/svg"><defs
   id="defs18" /><sodipodi:namedview
   id="namedview16"
   pagecolor="#ffffff"
   bordercolor="#000000"
   borderopacity="0.25"
   inkscape:showpageshadow="2"
   inkscape:pageopacity="0.0"
   inkscape:pagecheckerboard="0"
   inkscape:deskcolor="#d1d1d1"
   showgrid="false"
   inkscape:zoom="0.295"
   inkscape:cx="274.57627"
   inkscape:cy="400"
   inkscape:window-width="1309"
   inkscape:window-height="456"
   inkscape:window-x="0"
   inkscape:window-y="25"
   inkscape:window-maximized="0"
   inkscape:current-layer="Layer_1" />

<g
   id="SVGRepo_bgCarrier"
   stroke-width="0" />

<g
   id="SVGRepo_tracerCarrier"
   stroke-linecap="round"
   stroke-linejoin="round" />

<g
   id="SVGRepo_iconCarrier"
   style="fill:#a31621;fill-opacity:1"> <g
   id="g12"
   style="fill:#a31621;fill-opacity:1"> <g
   id="g10"
   style="fill:#a31621;fill-opacity:1"> <g
   id="g8"
   style="fill:#a31621;fill-opacity:1"> <path
   d="M375.467,213.339H358.4c-4.71,0-8.533,3.814-8.533,8.533s3.823,8.533,8.533,8.533h17.067c4.71,0,8.533-3.814,8.533-8.533 S380.177,213.339,375.467,213.339z"
   id="path4"
   style="fill:#a31621;fill-opacity:1" /> <path
   d="M503.467,426.672h-18.398c0.794-2.423,1.331-4.966,1.331-7.646V226.514c17.826-18.901,27.051-44.365,25.412-70.443 c-3.115-49.229-45.457-87.799-96.393-87.799H179.2h-0.452h-0.384h-7.697c-1.28,0-2.475,0.324-3.567,0.836 c-10.598,1.374-20.898,4.514-30.566,9.489c-17.502-9.003-37.009-12.211-56.713-9.284c-42.462,6.272-75.887,41.916-79.479,84.753 c-2.253,26.82,6.929,53.018,25.259,72.448v192.512c0,2.679,0.538,5.222,1.331,7.646H8.533c-4.71,0-8.533,3.814-8.533,8.533 c0,4.719,3.823,8.533,8.533,8.533h41.779h188.621h222.754h41.779c4.71,0,8.533-3.814,8.533-8.533 C512,430.486,508.177,426.672,503.467,426.672z M53.7,147.572l8.533-8.533c3.337-3.337,8.73-3.337,12.066,0s3.337,8.73,0,12.066 l-8.533,8.533c-1.664,1.664-3.849,2.5-6.033,2.5s-4.369-0.836-6.033-2.5C50.364,156.302,50.364,150.909,53.7,147.572z M119.467,409.605h-51.2c-4.71,0-8.533-3.814-8.533-8.533v-76.8c0-4.719,3.823-8.533,8.533-8.533s8.533,3.814,8.533,8.533v68.267 h42.667c4.71,0,8.533,3.814,8.533,8.533S124.177,409.605,119.467,409.605z M125.5,304.705c-1.664,1.664-3.849,2.5-6.033,2.5 s-4.369-0.836-6.033-2.5l-8.533-8.533c-3.337-3.337-3.337-8.73,0-12.066s8.73-3.337,12.066,0l8.533,8.533 C128.836,295.976,128.836,301.369,125.5,304.705z M125.5,219.372c-1.664,1.664-3.849,2.5-6.033,2.5s-4.369-0.836-6.033-2.5 l-8.533-8.533c-3.337-3.336-3.337-8.73,0-12.066s8.73-3.337,12.066,0l8.533,8.533C128.836,210.642,128.836,216.035,125.5,219.372 z M196.267,221.872c4.71,0,8.533,3.814,8.533,8.533v8.533c0,4.719-3.823,8.533-8.533,8.533s-8.533-3.814-8.533-8.533v-8.533 C187.733,225.686,191.556,221.872,196.267,221.872z M162.133,162.139c0-4.719,3.823-8.533,8.533-8.533h8.533 c4.71,0,8.533,3.814,8.533,8.533s-3.823,8.533-8.533,8.533h-8.533C165.956,170.672,162.133,166.858,162.133,162.139z M202.3,372.972l-8.533,8.533c-1.664,1.664-3.849,2.5-6.033,2.5s-4.369-0.836-6.033-2.5c-3.337-3.337-3.337-8.73,0-12.066 l8.533-8.533c3.337-3.337,8.73-3.337,12.066,0C205.636,364.242,205.636,369.635,202.3,372.972z M452.267,230.405h17.067v188.621 c0,4.215-3.43,7.646-7.646,7.646H247.467V230.405h76.8c4.71,0,8.533-3.814,8.533-8.533s-3.823-8.533-8.533-8.533h-66.432 c0.469-0.725,0.922-1.459,1.365-2.193c0.307-0.486,0.563-0.99,0.853-1.476c1.357-2.287,2.611-4.608,3.763-6.997 c0.247-0.512,0.469-1.041,0.708-1.57c1.092-2.372,2.082-4.779,2.961-7.236c0.213-0.597,0.418-1.203,0.623-1.809 c0.794-2.364,1.493-4.762,2.099-7.194c0.188-0.742,0.367-1.485,0.538-2.236c0.503-2.27,0.905-4.557,1.237-6.878 c0.136-0.93,0.29-1.852,0.401-2.79c0.247-2.133,0.375-4.275,0.478-6.434c0.051-1.101,0.137-2.185,0.154-3.294 c0-0.367,0.051-0.725,0.051-1.092c0-0.939-0.145-1.843-0.171-2.773c-0.051-1.766-0.017-3.524-0.171-5.299 c-0.068-0.836-0.222-1.638-0.316-2.466c-0.085-0.828-0.196-1.647-0.316-2.458c-0.418-3.055-0.973-6.067-1.69-9.028 c-0.102-0.418-0.171-0.836-0.273-1.246c-0.819-3.166-1.826-6.255-2.961-9.293c-0.401-1.075-0.845-2.116-1.28-3.166 c-0.819-1.954-1.69-3.874-2.637-5.76c-0.589-1.195-1.152-2.389-1.792-3.558c-1.357-2.449-2.807-4.838-4.369-7.159 c-0.913-1.357-1.911-2.637-2.893-3.942c-0.913-1.212-1.835-2.406-2.799-3.575c-1.084-1.297-2.167-2.586-3.311-3.831 c-1.254-1.357-2.577-2.645-3.9-3.925c-1.579-1.519-3.2-2.987-4.881-4.395c-1.51-1.263-3.046-2.5-4.634-3.678 c-0.538-0.393-1.016-0.862-1.562-1.246H415.42c41.958,0,76.817,31.539,79.351,71.817c1.314,20.702-5.845,40.875-19.584,56.183 h-22.921c-4.71,0-8.533,3.814-8.533,8.533S447.556,230.405,452.267,230.405z"
   id="path6"
   style="fill:#a31621;fill-opacity:1" /> </g> </g> </g> </g>

</svg>
