<?xml version="1.0" encoding="UTF-8" standalone="no"?>
<svg
   viewBox="0 0 64 64"
   id="easter-island"
   version="1.1"
   sodipodi:docname="background1.svg"
   inkscape:version="1.2.2 (b0a84865, 2022-12-01)"
   xmlns:inkscape="http://www.inkscape.org/namespaces/inkscape"
   xmlns:sodipodi="http://sodipodi.sourceforge.net/DTD/sodipodi-0.dtd"
   xmlns="http://www.w3.org/2000/svg"
   xmlns:svg="http://www.w3.org/2000/svg">
  <defs
     id="defs23" />
  <sodipodi:namedview
     id="namedview21"
     pagecolor="#ffffff"
     bordercolor="#000000"
     borderopacity="0.25"
     inkscape:showpageshadow="2"
     inkscape:pageopacity="0.0"
     inkscape:pagecheckerboard="0"
     inkscape:deskcolor="#d1d1d1"
     showgrid="false"
     inkscape:zoom="3.2251894"
     inkscape:cx="-8.6816607"
     inkscape:cy="36.276939"
     inkscape:window-width="1309"
     inkscape:window-height="456"
     inkscape:window-x="0"
     inkscape:window-y="25"
     inkscape:window-maximized="0"
     inkscape:current-layer="easter-island" />
  <path
     fill="#a19e97"
     d="M63.3 54.7 64 64H28.2L33 52.7h4.7c.4 0 .8-.1 1-.4l1.4-1.2c.3-.3.6-.4 1-.4h.9c.3 0 .6-.1.8-.2l7.3-4.4-7.3 2.9-10.8.5c-.1-.3-1.9 0-1.9 0l-.9-2.6.4-2.3 3.1-6.6-1.2-2.3 2.6-8.2L33 25l4.5-7.1 1.6-2.5-1.3-4.2C40.7 6.8 45.3 2 45.3 2c10.9-4.9 14.9.8 14.9.8 5.2.1 3.6 8.7 3.6 8.7-.2 3.6-1.9 17-1.9 17l-2.1 4.2c-.1.4-.3.8-.6 1.1-.5.6-1.3.9-2 1-.7.1-1.2.1-1.2.1l.1 10.9 2.4 4.1c2.6.2 4.6 2.2 4.8 4.8z"
     id="path2"
     style="fill:#a31621;fill-opacity:1" />
  <path
     fill="#6f7269"
     d="m33 52.7-1-3.3c0 .3.5 1 1 3.3zm19.8-7.9L35.8 64h-7.6L33 52.7h4.7c.4 0 .8-.1 1-.4l1.4-1.2c.3-.3.6-.4 1-.4h.9c.3 0 .6-.1.8-.2l7.3-4.4 2.7-1.3z"
     id="path4"
     style="fill:#0c0c1d;fill-opacity:1" />
  <path
     fill="#565857"
     d="m31.4 35.7 1.6-.6 5.9-.9 4.9 1.5-9.1 1.1-2.1 1.2M33 25l1.9 4.1 7.8-2.9-2.7-.9z"
     id="path6"
     style="fill:#0c0c1d;fill-opacity:1" />
  <path
     fill="#6f7269"
     d="m57.2 12.5-7.8 2.6s-1-5.8-3.3-4.6c-.1 0-2.6.1-4.4 6.6l-4.3.8 1.6-2.5-1.3-4.2L41 8.5s1.9-1.7 6.6-2.7c.1 0 5.8-.4 9.6 6.7zm.7 18.1 1.3 1.4v1.7c-.5.6-1.3.9-2 1l-1-2.8v-1.4l3-12.7-1.3 12.8z"
     id="path8"
     style="fill:#0c0c1d;fill-opacity:1" />
  <path
     fill="#565857"
     d="m50.1 46-7.3 4.4c-.2.1-.5.2-.8.2h-.8c-.4 0-.7.1-1 .4l-1.4 1.2c-.3.3-.7.4-1 .4H33c-.5-2.3-.9-3-1-3.3l10.8-.6 7.3-2.7z"
     id="path10"
     style="fill:#0c0c1d;fill-opacity:1" />
  <path
     fill="#a19e97"
     d="m25 57.3.5 6.7H0l3.4-8c-.3-1.6-.7-2.1-.7-2.3 0-.2-1.4 0-1.4 0l-.7-1.8.3-1.7 2.2-4.7-.9-1.6L4.1 38l-.8-1.7 3.2-5.1 1.1-1.8-.9-3c2.1-3.1 5.3-6.5 5.3-6.5 7.8-3.5 10.6.5 10.6.5 3.7.1 2.6 6.2 2.6 6.2.1 2.4-1.2 12-1.2 12l-1.5 3c-.1.3-.2.6-.4.8-.4.4-.9.6-1.4.7-.5.1-.9.1-.9.1l.1 7.8 1.7 2.9c1.9.2 3.3 1.6 3.4 3.4z"
     id="path12"
     style="fill:#a31621;fill-opacity:1" />
  <path
     fill="#6f7269"
     d="M17.6 50.3 5.4 64H0l3.4-8h3.3c.3 0 .5-.1.7-.3l1-.9c.2-.2.5-.3.7-.3h.6c.2 0 .4-.1.6-.2l5.2-3.2 2.1-.8z"
     id="path14"
     style="fill:#0c0c1d;fill-opacity:1" />
  <path
     fill="#565857"
     d="m15.6 51.2-5.2 3.2c-.2.1-.4.2-.6.2h-.6c-.3 0-.5.1-.7.3l-1 .9c-.2 0-.5.2-.8.2H3.4l-.7-2.3 7.7-.4 5.2-2.1zM2.3 43.8l1.1-.4 4.3-.7 3.4 1.1-6.5.8-1.5.8M3.4 36.2l1.3 2.9 5.6-2.1-1.9-.6z"
     id="path16"
     style="fill:#0c0c1d;fill-opacity:1" />
  <path
     fill="#6f7269"
     d="m20.7 27.2-5.6 1.9s-.7-4.2-2.3-3.3c-.1 0-1.9.1-3.1 4.7l-3.1.6 1.1-1.8-.9-3 2.3-1.9s1.4-1.2 4.7-1.9c.1 0 4.2-.3 6.9 4.7zm.5 13 .9 1v1.2c-.4.4-.9.6-1.4.7l-.7-2v-1l2.1-9-.9 9.1z"
     id="path18"
     style="fill:#0c0c1d;fill-opacity:1" />
</svg>
