<?xml version="1.0" encoding="UTF-8" standalone="no"?>
<!-- Uploaded to: SVG Repo, www.svgrepo.com, Transformed by: SVG Repo Mixer Tools -->

<svg
   width="800px"
   height="800px"
   viewBox="-11.24 0 67.526 67.526"
   fill="#000000"
   version="1.1"
   id="svg22"
   sodipodi:docname="Backpack.svg"
   inkscape:version="1.2.2 (b0a84865, 2022-12-01)"
   xmlns:inkscape="http://www.inkscape.org/namespaces/inkscape"
   xmlns:sodipodi="http://sodipodi.sourceforge.net/DTD/sodipodi-0.dtd"
   xmlns="http://www.w3.org/2000/svg"
   xmlns:svg="http://www.w3.org/2000/svg">
  <defs
     id="defs26" />
  <sodipodi:namedview
     id="namedview24"
     pagecolor="#ffffff"
     bordercolor="#000000"
     borderopacity="0.25"
     inkscape:showpageshadow="2"
     inkscape:pageopacity="0.0"
     inkscape:pagecheckerboard="0"
     inkscape:deskcolor="#d1d1d1"
     showgrid="false"
     inkscape:zoom="0.295"
     inkscape:cx="274.57627"
     inkscape:cy="400"
     inkscape:window-width="1309"
     inkscape:window-height="456"
     inkscape:window-x="0"
     inkscape:window-y="25"
     inkscape:window-maximized="0"
     inkscape:current-layer="svg22" />
  <g
     id="SVGRepo_bgCarrier"
     stroke-width="0" />
  <g
     id="SVGRepo_tracerCarrier"
     stroke-linecap="round"
     stroke-linejoin="round" />
  <g
     id="SVGRepo_iconCarrier"
     style="fill:#a31621;fill-opacity:1">
    <g
       id="Backpack"
       transform="translate(-122.429 -688.64)"
       style="fill:#a31621;fill-opacity:1">
      <g
         id="Group_55"
         data-name="Group 55"
         style="fill:#a31621;fill-opacity:1">
        <path
           id="Path_38"
           data-name="Path 38"
           d="M163.81,756.166h-37.7a3.674,3.674,0,0,1-3.67-3.669V718.688c-.015-.39-.3-10.489,6.334-17.372,3.9-4.043,9.35-6.092,16.2-6.092s12.3,2.049,16.194,6.092c6.628,6.884,6.324,16.984,6.308,17.411l.005,33.77A3.673,3.673,0,0,1,163.81,756.166Zm-18.838-58.942c-6.283,0-11.246,1.84-14.753,5.469-6.047,6.26-5.788,15.864-5.784,15.96V752.5a1.671,1.671,0,0,0,1.67,1.669h37.7a1.671,1.671,0,0,0,1.669-1.669l0-33.809c0-.132.277-9.736-5.761-16C156.213,699.063,151.253,697.224,144.972,697.224Z"
           fill="#f7b32b"
           style="fill:#a31621;fill-opacity:1" />
      </g>
      <g
         id="Group_56"
         data-name="Group 56"
         style="fill:#a31621;fill-opacity:1">
        <path
           id="Path_39"
           data-name="Path 39"
           d="M145.721,752.068a210.961,210.961,0,0,1-22.349-1.132l.119-.993c.212.025,21.5,2.518,42.929,0l.118.993A180.392,180.392,0,0,1,145.721,752.068Z"
           fill="#f7b32b"
           style="fill:#a31621;fill-opacity:1" />
      </g>
      <g
         id="Group_57"
         data-name="Group 57"
         style="fill:#a31621;fill-opacity:1">
        <path
           id="Path_40"
           data-name="Path 40"
           d="M123.548,727.607l-.234-1.986c21.606-2.542,43.068-.024,43.283,0l-.238,1.986C166.146,727.581,144.91,725.1,123.548,727.607Z"
           fill="#f7b32b"
           style="fill:#a31621;fill-opacity:1" />
      </g>
      <g
         id="Group_58"
         data-name="Group 58"
         style="fill:#a31621;fill-opacity:1">
        <path
           id="Path_41"
           data-name="Path 41"
           d="M159.079,747.215H130.887a3.174,3.174,0,0,1-3.169-3.171V733.48a3.172,3.172,0,0,1,3.169-3.169h28.192a3.172,3.172,0,0,1,3.169,3.169v10.564A3.174,3.174,0,0,1,159.079,747.215Zm-28.192-15.9a2.171,2.171,0,0,0-2.169,2.169v10.564a2.173,2.173,0,0,0,2.169,2.171h28.192a2.173,2.173,0,0,0,2.169-2.171V733.48a2.171,2.171,0,0,0-2.169-2.169Z"
           fill="#f7b32b"
           style="fill:#a31621;fill-opacity:1" />
      </g>
      <g
         id="Group_59"
         data-name="Group 59"
         style="fill:#a31621;fill-opacity:1">
        <rect
           id="Rectangle_9"
           data-name="Rectangle 9"
           width="33.53"
           height="1"
           transform="translate(128.218 734.815)"
           fill="#f7b32b"
           style="fill:#a31621;fill-opacity:1" />
      </g>
      <g
         id="Group_60"
         data-name="Group 60"
         style="fill:#a31621;fill-opacity:1">
        <path
           id="Path_42"
           data-name="Path 42"
           d="M159.023,744.99h-7.451v-4.557h7.451Zm-6.451-1h5.451v-2.557h-5.451Z"
           fill="#f7b32b"
           style="fill:#a31621;fill-opacity:1" />
      </g>
      <g
         id="Group_61"
         data-name="Group 61"
         style="fill:#a31621;fill-opacity:1">
        <path
           id="Path_43"
           data-name="Path 43"
           d="M131.943,739.317a1.558,1.558,0,0,1-1.556-1.555l.041-.2,1.515-3.508,1.556,3.707A1.558,1.558,0,0,1,131.943,739.317Zm-.549-1.467a.557.557,0,0,0,1.1,0l-.55-1.274Z"
           fill="#f7b32b"
           style="fill:#a31621;fill-opacity:1" />
      </g>
      <g
         id="Group_62"
         data-name="Group 62"
         style="fill:#a31621;fill-opacity:1">
        <path
           id="Path_44"
           data-name="Path 44"
           d="M138.453,696.319a8.248,8.248,0,0,1,1.635-5.7,6.042,6.042,0,0,1,4.549-1.977,6.119,6.119,0,0,1,4.655,1.634,8.791,8.791,0,0,1,2.247,5.76l-2,0a6.839,6.839,0,0,0-1.644-4.326,4.15,4.15,0,0,0-3.188-1.068,4.078,4.078,0,0,0-3.111,1.293,6.346,6.346,0,0,0-1.154,4.179Z"
           fill="#f7b32b"
           style="fill:#a31621;fill-opacity:1" />
      </g>
    </g>
  </g>
</svg>
