<?xml version="1.0" encoding="UTF-8" standalone="no"?>
<!-- Uploaded to: SVG Repo, www.svgrepo.com, Transformed by: SVG Repo Mixer Tools -->

<svg
   fill="#f7b32b"
   height="800px"
   width="800px"
   version="1.1"
   id="Layer_1"
   viewBox="0 0 512.001 512.001"
   xml:space="preserve"
   sodipodi:docname="Bread2.svg"
   inkscape:version="1.2.2 (b0a84865, 2022-12-01)"
   xmlns:inkscape="http://www.inkscape.org/namespaces/inkscape"
   xmlns:sodipodi="http://sodipodi.sourceforge.net/DTD/sodipodi-0.dtd"
   xmlns="http://www.w3.org/2000/svg"
   xmlns:svg="http://www.w3.org/2000/svg"><defs
   id="defs20" /><sodipodi:namedview
   id="namedview18"
   pagecolor="#ffffff"
   bordercolor="#000000"
   borderopacity="0.25"
   inkscape:showpageshadow="2"
   inkscape:pageopacity="0.0"
   inkscape:pagecheckerboard="0"
   inkscape:deskcolor="#d1d1d1"
   showgrid="false"
   inkscape:zoom="0.295"
   inkscape:cx="274.57627"
   inkscape:cy="400"
   inkscape:window-width="1309"
   inkscape:window-height="456"
   inkscape:window-x="0"
   inkscape:window-y="25"
   inkscape:window-maximized="0"
   inkscape:current-layer="Layer_1" />

<g
   id="SVGRepo_bgCarrier"
   stroke-width="0" />

<g
   id="SVGRepo_tracerCarrier"
   stroke-linecap="round"
   stroke-linejoin="round" />

<g
   id="SVGRepo_iconCarrier"
   style="fill:#a31621;fill-opacity:1"> <g
   id="g8"
   style="fill:#a31621;fill-opacity:1"> <g
   id="g6"
   style="fill:#a31621;fill-opacity:1"> <path
   d="M472.322,175.563c-2.872-3.595-8.115-4.185-11.712-1.312c-3.597,2.871-4.184,8.115-1.313,11.712 c23.576,29.525,36.037,63.583,36.037,98.492c0,87.349-78.287,129.81-239.333,129.81S16.666,371.803,16.666,284.455 c0-64.79,42.523-121.968,106.931-155.465c10.611,0.764,60.365,6.101,116.862,40.451c-7.27,5.25-14.595,10.982-21.911,17.256 c-52.133,44.704-92.404,106.334-119.696,183.175c-1.541,4.337,0.727,9.101,5.064,10.642c0.922,0.328,1.863,0.483,2.789,0.483 c3.428,0,6.64-2.131,7.852-5.547c19.423-54.69,60.834-140.734,140.764-196.376c9.131,6.293,18.358,13.364,27.557,21.332 c1.577,1.366,3.519,2.034,5.452,2.034c2.333,0,4.653-0.974,6.302-2.878c3.013-3.479,2.635-8.741-0.843-11.754 c-7.824-6.776-15.652-12.94-23.419-18.556c22.143-13.52,46.978-24.712,74.824-32.454c4.434-1.233,7.03-5.827,5.797-10.261 c-1.232-4.434-5.827-7.028-10.26-5.797c-22.239,6.183-52.662,17.591-85.164,38.419c-40.703-26.199-78.474-37.795-103.426-42.909 c31.431-11.861,66.667-18.515,103.86-18.515c72.063,0,139.623,25.032,185.358,68.677c3.328,3.177,8.603,3.055,11.782-0.276 c3.177-3.33,3.054-8.604-0.276-11.782C404.061,107.781,332.307,81.07,256.001,81.07c-68.016,0-132.042,20.924-180.283,58.916 C26.89,178.439,0,229.746,0,284.455c0,53.52,26.017,92.888,77.328,117.009c42.176,19.828,100.621,29.467,178.672,29.467 s136.496-9.639,178.672-29.466c51.311-24.122,77.328-63.491,77.328-117.01C512,245.727,498.279,208.073,472.322,175.563z"
   id="path4"
   style="fill:#a31621;fill-opacity:1" /> </g> </g> <g
   id="g14"
   style="fill:#a31621;fill-opacity:1"> <g
   id="g12"
   style="fill:#a31621;fill-opacity:1"> <path
   d="M413.472,373.504c-23.182-66.673-56.188-122.297-98.101-165.329c-3.212-3.295-8.486-3.367-11.784-0.154 c-3.297,3.211-3.365,8.487-0.156,11.783c40.199,41.271,71.925,94.824,94.299,159.174c1.197,3.441,4.421,5.599,7.871,5.599 c0.907,0,1.83-0.149,2.737-0.464C412.685,382.6,414.983,377.85,413.472,373.504z"
   id="path10"
   style="fill:#a31621;fill-opacity:1" /> </g> </g> </g>

</svg>
