<?xml version="1.0" encoding="UTF-8" standalone="no"?>
<!-- Uploaded to: SVG Repo, www.svgrepo.com, Generator: SVG Repo Mixer Tools -->

<svg
   width="800px"
   height="800px"
   viewBox="0 0 192 192"
   fill="none"
   version="1.1"
   id="svg4"
   sodipodi:docname="github-icon.svg"
   inkscape:version="1.2.2 (b0a84865, 2022-12-01)"
   xmlns:inkscape="http://www.inkscape.org/namespaces/inkscape"
   xmlns:sodipodi="http://sodipodi.sourceforge.net/DTD/sodipodi-0.dtd"
   xmlns="http://www.w3.org/2000/svg"
   xmlns:svg="http://www.w3.org/2000/svg">
  <defs
     id="defs8" />
  <sodipodi:namedview
     id="namedview6"
     pagecolor="#ffffff"
     bordercolor="#000000"
     borderopacity="0.25"
     inkscape:showpageshadow="2"
     inkscape:pageopacity="0.0"
     inkscape:pagecheckerboard="0"
     inkscape:deskcolor="#d1d1d1"
     showgrid="false"
     inkscape:zoom="0.295"
     inkscape:cx="401.69492"
     inkscape:cy="400"
     inkscape:window-width="1680"
     inkscape:window-height="1050"
     inkscape:window-x="0"
     inkscape:window-y="0"
     inkscape:window-maximized="0"
     inkscape:current-layer="svg4" />
  <path
     stroke="#000000"
     stroke-linecap="round"
     stroke-linejoin="round"
     stroke-width="12"
     d="M120.755 170c.03-4.669.059-20.874.059-27.29 0-9.272-3.167-15.339-6.719-18.41 22.051-2.464 45.201-10.863 45.201-49.067 0-10.855-3.824-19.735-10.175-26.683 1.017-2.516 4.413-12.63-.987-26.32 0 0-8.296-2.672-27.202 10.204-7.912-2.213-16.371-3.308-24.784-3.352-8.414.044-16.872 1.14-24.785 3.352C52.457 19.558 44.162 22.23 44.162 22.23c-5.4 13.69-2.004 23.804-.987 26.32C36.824 55.498 33 64.378 33 75.233c0 38.204 23.149 46.603 45.2 49.067-3.551 3.071-6.719 9.138-6.719 18.41 0 6.416.03 22.621.059 27.29M27 130c9.939.703 15.67 9.735 15.67 9.735 8.834 15.199 23.178 10.803 28.815 8.265"
     id="path2"
     style="stroke:#cdedf6;stroke-opacity:1" />
</svg>
