<?xml version="1.0" encoding="UTF-8" standalone="no"?>
<svg
   width="750"
   height="899"
   viewBox="0 0 750 899"
   fill="none"
   version="1.1"
   id="svg6"
   sodipodi:docname="Logo.svg"
   inkscape:version="1.2.2 (b0a84865, 2022-12-01)"
   xmlns:inkscape="http://www.inkscape.org/namespaces/inkscape"
   xmlns:sodipodi="http://sodipodi.sourceforge.net/DTD/sodipodi-0.dtd"
   xmlns="http://www.w3.org/2000/svg"
   xmlns:svg="http://www.w3.org/2000/svg">
  <defs
     id="defs10" />
  <sodipodi:namedview
     id="namedview8"
     pagecolor="#ffffff"
     bordercolor="#000000"
     borderopacity="0.25"
     inkscape:showpageshadow="2"
     inkscape:pageopacity="0.0"
     inkscape:pagecheckerboard="0"
     inkscape:deskcolor="#d1d1d1"
     showgrid="false"
     inkscape:zoom="0.2625139"
     inkscape:cx="-49.521187"
     inkscape:cy="449.50001"
     inkscape:window-width="1309"
     inkscape:window-height="456"
     inkscape:window-x="0"
     inkscape:window-y="25"
     inkscape:window-maximized="0"
     inkscape:current-layer="svg6" />
  <path
     d="M733.062 326.487C723.325 259.062 721.763 235.725 722.3 228.288C723.55 225.463 727.45 219.588 730.112 215.613C738.987 202.363 750 185.887 750 165.55C750 78.3625 633.962 0 480.487 0C352.862 0 221.138 45.825 128.312 97.6625C110.422 106.474 93.4295 117.002 77.575 129.1C77.384 129.236 77.188 129.366 76.9875 129.488C76.95 129.512 76.9625 129.562 76.9375 129.6C29.2875 166.363 0 213.025 0 255.425C0 275.763 11.0125 292.237 19.9 305.487C22.5875 309.5 26.5375 315.438 27.7375 318.237C28.3 325.025 26.8375 348.1 16.95 416.388C16.2875 421.05 15.725 424.825 15.3625 427.438C-2.725 559.987 0.512502 623.25 27.375 660.938C50.5125 693.362 87.4 700 135.688 700C152.462 700 171.475 699.212 191.6 698.387C216.825 697.337 245.388 696.163 277.025 696.163C308.663 696.163 337.25 697.337 362.45 698.387C382.587 699.225 401.588 700 418.363 700C427.325 700 435.738 699.662 443.888 699.075L443.85 699.213C446.312 699.213 449.1 698.913 452.05 698.488C473.95 696.188 492.65 690.788 507.875 679.825C589.025 643.925 705.25 568.5 722.638 544.1C749.513 506.425 752.763 470.1 734.65 337.562C734.275 334.95 733.713 331.15 733.062 326.487ZM516.388 431.75C545.463 644.513 518.85 673.05 418.363 673.05C381.5 673.05 334.675 669.2 277.025 669.2C219.375 669.2 172.562 673.05 135.688 673.05C35.225 673.05 8.6125 644.487 37.6625 431.75C40.25 412.988 53.0625 330.75 49.8 312.138C46.9875 296.15 22.6 274.812 22.6 255.425C22.6 185.387 136.513 89.8625 277.025 89.8625C417.538 89.8625 531.45 185.4 531.45 255.425C531.45 274.812 507.062 296.15 504.25 312.138C500.975 330.75 513.812 412.988 516.388 431.75Z"
     fill="#F7B32B"
     id="path2"
     style="fill:#a31621;fill-opacity:1" />
  <path
     d="M122.297 852.2L127.417 852.328C130.403 857.789 134.67 860.52 140.217 860.52C145.849 860.52 150.457 858.301 154.041 853.864C157.625 849.341 159.417 842.685 159.417 833.896V822.888C155.321 829.203 149.305 832.36 141.369 832.36C133.518 832.36 127.715 829.331 123.961 823.272C120.206 817.213 118.329 809.832 118.329 801.128V775.4H123.065V801C123.065 809.789 124.771 816.445 128.185 820.968C131.598 825.405 135.651 827.624 140.345 827.624C145.123 827.624 149.177 826.216 152.505 823.4C155.918 820.584 158.222 816.403 159.417 810.856V775.4H164.153V834.024C164.153 843.752 162.147 851.389 158.137 856.936C154.126 862.483 148.11 865.256 140.089 865.256C132.067 865.256 126.137 860.904 122.297 852.2ZM186.113 801L185.985 834.792C185.985 841.96 187.691 848.232 191.105 853.608C194.603 858.899 198.913 861.544 204.033 861.544C209.238 861.544 214.955 858.003 221.185 850.92V801H225.921V865H221.185V857.32C215.638 863.293 209.622 866.28 203.137 866.28C198.785 866.28 194.305 864.232 189.697 860.136C187.222 857.917 185.174 854.632 183.553 850.28C182.017 845.928 181.249 840.808 181.249 834.92L181.377 801H186.113ZM282.426 865L282.554 831.208C282.554 824.04 280.932 817.811 277.69 812.52C274.532 807.144 270.436 804.456 265.402 804.456C260.452 804.456 254.863 807.997 248.634 815.08V865H243.898V801H248.634V808.68C254.18 802.707 260.196 799.72 266.682 799.72C269.327 799.72 272.186 800.659 275.258 802.536C278.415 804.413 281.06 807.357 283.194 811.368C289.252 803.603 296.207 799.72 304.058 799.72C308.41 799.72 312.932 801.768 317.626 805.864C320.015 808.083 321.978 811.368 323.514 815.72C325.135 820.072 325.946 825.192 325.946 831.08L325.818 865H321.082L321.21 831.208C321.21 824.04 319.46 817.811 315.962 812.52C312.548 807.144 308.324 804.456 303.29 804.456C299.962 804.456 296.591 805.608 293.178 807.912C289.85 810.216 287.119 812.861 284.986 815.848C286.522 820.285 287.29 825.363 287.29 831.08L287.162 865H282.426ZM384.367 860.392V865.128C379.247 865.128 374.724 864.915 370.799 864.488C366.959 864.061 362.948 863.165 358.767 861.8C354.585 860.349 351.129 858.429 348.399 856.04C345.753 853.651 343.535 850.365 341.743 846.184C340.036 841.917 339.183 836.883 339.183 831.08C339.183 825.192 339.951 820.072 341.487 815.72C343.108 811.368 345.156 808.083 347.631 805.864C352.239 801.768 356.719 799.72 361.071 799.72C368.324 799.72 373.956 801.853 377.967 806.12C382.063 810.387 384.111 816.019 384.111 823.016C384.111 827.709 384.068 830.44 383.983 831.208H343.919C343.919 842.216 347.204 849.853 353.775 854.12C360.345 858.301 370.543 860.392 384.367 860.392ZM379.375 826.472V823.656C379.375 818.024 377.753 813.416 374.511 809.832C371.353 806.248 367.129 804.456 361.839 804.456C356.633 804.456 352.495 806.547 349.423 810.728C346.436 814.824 344.644 820.072 344.047 826.472H379.375ZM404.435 805.736H389.715V801H404.435V779.88H409.171V801H424.019V805.736H409.171V865H404.435V805.736ZM473.956 865L474.084 831.208C474.084 824.04 472.334 817.768 468.836 812.392C465.422 807.016 461.198 804.328 456.164 804.328C452.921 804.328 449.934 805.309 447.204 807.272C444.558 809.149 441.785 811.752 438.884 815.08V865H434.148V769H438.884V808.68C444.516 802.621 450.532 799.592 456.932 799.592C460.43 799.592 463.972 800.915 467.556 803.56C475.065 809.021 478.82 818.195 478.82 831.08L478.692 865H473.956ZM506.725 857.32L518.373 775.4H523.109L534.757 857.32L549.093 775.4H553.829L538.341 865H531.045L520.677 795.368L510.437 865H503.141L487.653 775.4H492.389L506.725 857.32Z"
     fill="white"
     id="path4"
     style="fill:#cdedf6;fill-opacity:1" />
</svg>
