<?xml version="1.0" encoding="UTF-8" standalone="no"?>
<svg
   width="750"
   height="700"
   viewBox="0 0 750 700"
   fill="none"
   version="1.1"
   id="svg4"
   sodipodi:docname="SmallLogo.svg"
   inkscape:version="1.2.2 (b0a84865, 2022-12-01)"
   xmlns:inkscape="http://www.inkscape.org/namespaces/inkscape"
   xmlns:sodipodi="http://sodipodi.sourceforge.net/DTD/sodipodi-0.dtd"
   xmlns="http://www.w3.org/2000/svg"
   xmlns:svg="http://www.w3.org/2000/svg">
  <defs
     id="defs8" />
  <sodipodi:namedview
     id="namedview6"
     pagecolor="#ffffff"
     bordercolor="#000000"
     borderopacity="0.25"
     inkscape:showpageshadow="2"
     inkscape:pageopacity="0.0"
     inkscape:pagecheckerboard="0"
     inkscape:deskcolor="#d1d1d1"
     showgrid="false"
     inkscape:zoom="0.33714286"
     inkscape:cx="263.98305"
     inkscape:cy="350"
     inkscape:window-width="1309"
     inkscape:window-height="456"
     inkscape:window-x="0"
     inkscape:window-y="25"
     inkscape:window-maximized="0"
     inkscape:current-layer="svg4" />
  <path
     d="M733.063 326.487C723.325 259.062 721.763 235.725 722.3 228.288C723.55 225.463 727.45 219.588 730.113 215.613C738.988 202.363 750 185.887 750 165.55C750 78.3625 633.962 0 480.487 0C352.862 0 221.138 45.825 128.313 97.6625C110.422 106.474 93.4295 117.002 77.575 129.1C77.384 129.236 77.188 129.366 76.9875 129.488C76.95 129.513 76.9625 129.563 76.9375 129.6C29.2875 166.363 0 213.025 0 255.425C0 275.762 11.0125 292.237 19.9 305.487C22.5875 309.5 26.5375 315.437 27.7375 318.237C28.3 325.025 26.8375 348.1 16.95 416.388C16.2875 421.05 15.725 424.825 15.3625 427.437C-2.725 559.987 0.512502 623.25 27.375 660.938C50.5125 693.363 87.4 700 135.687 700C152.462 700 171.475 699.212 191.6 698.387C216.825 697.337 245.388 696.163 277.025 696.163C308.663 696.163 337.25 697.337 362.45 698.387C382.588 699.225 401.588 700 418.363 700C427.325 700 435.738 699.662 443.888 699.075L443.85 699.213C446.312 699.213 449.1 698.913 452.05 698.488C473.95 696.188 492.65 690.788 507.875 679.825C589.025 643.925 705.25 568.5 722.638 544.1C749.513 506.425 752.762 470.1 734.65 337.562C734.275 334.95 733.713 331.15 733.063 326.487ZM516.388 431.75C545.463 644.513 518.85 673.05 418.363 673.05C381.5 673.05 334.675 669.2 277.025 669.2C219.375 669.2 172.562 673.05 135.687 673.05C35.225 673.05 8.6125 644.488 37.6625 431.75C40.25 412.988 53.0625 330.75 49.8 312.138C46.9875 296.15 22.6 274.813 22.6 255.425C22.6 185.387 136.513 89.8625 277.025 89.8625C417.538 89.8625 531.45 185.4 531.45 255.425C531.45 274.813 507.063 296.15 504.25 312.138C500.975 330.75 513.813 412.988 516.388 431.75Z"
     fill="#F7B32B"
     id="path2"
     style="fill:#a31616;fill-opacity:1" />
</svg>
